<svg xmlns="http://www.w3.org/2000/svg" width="137" height="169" viewBox="0 0 137 169"><g><g><g><g><path fill="#a6a6a6" d="M4.281 0a4.274 4.274 0 0 1 4.282 4.265A4.274 4.274 0 0 1 4.28 8.531 4.273 4.273 0 0 1 0 4.265 4.273 4.273 0 0 1 4.28 0z"/></g><g><path fill="#a6a6a6" d="M36.375 0a4.273 4.273 0 0 1 4.281 4.265 4.273 4.273 0 0 1-4.281 4.266 4.273 4.273 0 0 1-4.281-4.266A4.273 4.273 0 0 1 36.375 0z"/></g><g><path fill="#a6a6a6" d="M68.5 0a4.274 4.274 0 0 1 4.281 4.265A4.274 4.274 0 0 1 68.5 8.531a4.273 4.273 0 0 1-4.281-4.266A4.273 4.273 0 0 1 68.499 0z"/></g><g><path fill="#a6a6a6" d="M100.594 0a4.273 4.273 0 0 1 4.28 4.265 4.273 4.273 0 0 1-4.28 4.266 4.273 4.273 0 0 1-4.282-4.266A4.273 4.273 0 0 1 100.594 0z"/></g><g><path fill="#a6a6a6" d="M132.719 0A4.274 4.274 0 0 1 137 4.265a4.274 4.274 0 0 1-4.281 4.266 4.273 4.273 0 0 1-4.282-4.266A4.273 4.273 0 0 1 132.72 0z"/></g></g><g><g><path fill="#a6a6a6" d="M4.281 32.094a4.281 4.281 0 1 1 0 8.562 4.281 4.281 0 0 1 0-8.562z"/></g><g><path fill="#a6a6a6" d="M36.375 32.094a4.281 4.281 0 1 1 0 8.562 4.281 4.281 0 0 1 0-8.562z"/></g><g><path fill="#a6a6a6" d="M68.5 32.094a4.281 4.281 0 1 1 0 8.562 4.281 4.281 0 0 1 0-8.562z"/></g><g><path fill="#a6a6a6" d="M100.594 32.094a4.281 4.281 0 1 1 0 8.562 4.281 4.281 0 0 1 0-8.562z"/></g><g><path fill="#a6a6a6" d="M132.719 32.094a4.281 4.281 0 1 1 0 8.562 4.281 4.281 0 0 1 0-8.562z"/></g></g><g><g><path fill="#a6a6a6" d="M4.281 64.156a4.29 4.29 0 0 1 4.282 4.297A4.29 4.29 0 0 1 4.28 72.75 4.289 4.289 0 0 1 0 68.453a4.29 4.29 0 0 1 4.281-4.297z"/></g><g><path fill="#a6a6a6" d="M36.375 64.156a4.29 4.29 0 0 1 4.281 4.297 4.289 4.289 0 0 1-4.281 4.297 4.289 4.289 0 0 1-4.281-4.297 4.29 4.29 0 0 1 4.281-4.297z"/></g><g><path fill="#a6a6a6" d="M68.5 64.156a4.29 4.29 0 0 1 4.281 4.297A4.29 4.29 0 0 1 68.5 72.75a4.289 4.289 0 0 1-4.281-4.297 4.29 4.29 0 0 1 4.28-4.297z"/></g><g><path fill="#a6a6a6" d="M100.594 64.156a4.29 4.29 0 0 1 4.28 4.297 4.289 4.289 0 0 1-4.28 4.297 4.289 4.289 0 0 1-4.282-4.297 4.29 4.29 0 0 1 4.282-4.297z"/></g><g><path fill="#a6a6a6" d="M132.719 64.156A4.29 4.29 0 0 1 137 68.453a4.29 4.29 0 0 1-4.281 4.297 4.289 4.289 0 0 1-4.282-4.297 4.29 4.29 0 0 1 4.282-4.297z"/></g></g><g><g><path fill="#a6a6a6" d="M4.281 96.25a4.29 4.29 0 0 1 4.282 4.297 4.29 4.29 0 0 1-4.282 4.297A4.29 4.29 0 0 1 0 100.547 4.29 4.29 0 0 1 4.28 96.25z"/></g><g><path fill="#a6a6a6" d="M36.375 96.25a4.29 4.29 0 0 1 4.281 4.297 4.29 4.29 0 0 1-4.281 4.297 4.29 4.29 0 0 1-4.281-4.297 4.29 4.29 0 0 1 4.281-4.297z"/></g><g><path fill="#a6a6a6" d="M68.5 96.25a4.29 4.29 0 0 1 4.281 4.297 4.29 4.29 0 0 1-4.281 4.297 4.29 4.29 0 0 1-4.281-4.297 4.29 4.29 0 0 1 4.28-4.297z"/></g><g><path fill="#a6a6a6" d="M100.594 96.25a4.29 4.29 0 0 1 4.28 4.297 4.29 4.29 0 0 1-4.28 4.297 4.29 4.29 0 0 1-4.282-4.297 4.29 4.29 0 0 1 4.282-4.297z"/></g><g><path fill="#a6a6a6" d="M132.719 96.25a4.29 4.29 0 0 1 4.281 4.297 4.29 4.29 0 0 1-4.281 4.297 4.29 4.29 0 0 1-4.282-4.297 4.29 4.29 0 0 1 4.282-4.297z"/></g></g><g><g><path fill="#a6a6a6" d="M4.281 128.344a4.281 4.281 0 1 1 0 8.562 4.281 4.281 0 0 1 0-8.562z"/></g><g><path fill="#a6a6a6" d="M36.375 128.344a4.281 4.281 0 1 1 0 8.562 4.281 4.281 0 0 1 0-8.562z"/></g><g><path fill="#a6a6a6" d="M68.5 128.344a4.281 4.281 0 1 1 0 8.562 4.281 4.281 0 0 1 0-8.562z"/></g><g><path fill="#a6a6a6" d="M100.594 128.344a4.281 4.281 0 1 1 0 8.562 4.281 4.281 0 0 1 0-8.562z"/></g><g><path fill="#a6a6a6" d="M132.719 128.344a4.281 4.281 0 1 1 0 8.562 4.281 4.281 0 0 1 0-8.562z"/></g></g><g><g><path fill="#a6a6a6" d="M4.281 160.469a4.274 4.274 0 0 1 4.282 4.265A4.274 4.274 0 0 1 4.28 169 4.273 4.273 0 0 1 0 164.734a4.273 4.273 0 0 1 4.281-4.265z"/></g><g><path fill="#a6a6a6" d="M36.375 160.469a4.273 4.273 0 0 1 4.281 4.265A4.273 4.273 0 0 1 36.375 169a4.273 4.273 0 0 1-4.281-4.266 4.273 4.273 0 0 1 4.281-4.265z"/></g><g><path fill="#a6a6a6" d="M68.5 160.469a4.274 4.274 0 0 1 4.281 4.265A4.274 4.274 0 0 1 68.5 169a4.273 4.273 0 0 1-4.281-4.266 4.273 4.273 0 0 1 4.28-4.265z"/></g><g><path fill="#a6a6a6" d="M100.594 160.469a4.273 4.273 0 0 1 4.28 4.265 4.273 4.273 0 0 1-4.28 4.266 4.273 4.273 0 0 1-4.282-4.266 4.273 4.273 0 0 1 4.282-4.265z"/></g><g><path fill="#a6a6a6" d="M132.719 160.469a4.274 4.274 0 0 1 4.281 4.265 4.274 4.274 0 0 1-4.281 4.266 4.273 4.273 0 0 1-4.282-4.266 4.273 4.273 0 0 1 4.282-4.265z"/></g></g></g></g></svg>